#!OML:ASF F:\VICON\USERDATA\INSTALL\rory3\rory3.ASF
:FULLY-SPECIFIED
:DEGREES
92
root 0.321137 17.0432 11.725 2.26588 -6.35551 -2.99028
lowerback 16.7532 1.34397 1.95113
upperback 0.52442 2.39302 2.67255
thorax -8.89003 1.12504 1.20085
lowerneck -20.4696 -3.42417 -1.90379
upperneck 8.64311 -4.39203 2.32571
head 6.00608 -2.00055 0.573758
rclavicle -7.95139e-015 -3.18055e-015
rhumerus -36.8149 16.1846 -98.8197
rradius 101.311
rwrist -7.75999
rhand -21.5874 36.3908
rfingers 7.12502
rthumb 4.80714 6.46532
lclavicle -7.95139e-015 -3.18055e-015
lhumerus -49.7308 -11.998 98.4782
lradius 100.072
lwrist 25.5033
lhand -28.547 3.73667
lfingers 7.12502
lthumb -1.91418 33.7078
rfemur -16.1463 5.3123 34.2112
rtibia 51.0842
rfoot -26.3785 -11.7432
rtoes 2.32297
lfemur -28.0557 8.81323 -12.4601
ltibia 94.0935
lfoot 1.87653 -4.92625
ltoes 4.65786
93
root 0.312691 17.0594 12.1731 2.48257 -6.92546 -3.31805
lowerback 16.7638 1.74673 2.18287
upperback 0.292221 2.98159 2.67833
thorax -9.14531 1.39428 0.932005
lowerneck -20.2203 -3.5099 -1.92851
upperneck 8.62828 -4.52344 2.46386
head 5.96901 -2.05563 0.610979
rclavicle 1.68967e-015 -2.54444e-014
rhumerus -36.3855 16.7172 -98.9877
rradius 102.081
rwrist -8.10508
rhand -21.6161 36.2486
rfingers 7.12502
rthumb 4.77946 6.32253
lclavicle 1.68967e-015 -2.54444e-014
lhumerus -51.3869 -12.0081 98.7548
lradius 100.735
lwrist 25.8504
lhand -28.3311 3.25393
lfingers 7.12502
lthumb -1.70568 33.2269
rfemur -14.0929 5.45104 34.4202
rtibia 50.3712
rfoot -25.746 -11.4445
rtoes -2.99321
lfemur -30.1362 9.99277 -12.2629
ltibia 94.0907
lfoot -0.441984 -4.36394
ltoes 0.532412
94
root 0.328595 17.0941 12.6371 2.90769 -5.23707 -3.30777
lowerback 16.1771 1.29498 2.97848
upperback 0.122153 2.50312 2.52467
thorax -8.95647 1.12931 0.444208
lowerneck -20.3842 -3.61459 -1.85824
upperneck 8.74498 -4.68916 2.51423
head 6.03569 -2.12644 0.594382
rclavicle 2.18663e-015 -4.21423e-014
rhumerus -35.5904 17.342 -99.0426
rradius 102.884
rwrist -9.17122
rhand -21.5966 36.2971
rfingers 7.12502
rthumb 4.79828 6.37139
lclavicle 2.18663e-015 -4.21423e-014
lhumerus -52.6482 -12.1078 98.9049
lradius 101.469
lwrist 26.2789
lhand -28.4006 3.27162
lfingers 7.12502
lthumb -1.77277 33.244
rfemur -12.5795 3.80906 34.2502
rtibia 49.5105
rfoot -26.084 -11.0212
rtoes -7.90076
lfemur -32.9916 8.72662 -12.8164
ltibia 93.7633
lfoot -0.502214 -4.12927
ltoes 0.314766
95
root 0.324333 17.148 13.1092 3.23639 -5.00645 -3.57395
lowerback 15.6142 1.45698 3.4576
upperback 0.0996061 2.77528 2.49123
thorax -8.63647 1.24415 0.0896131
lowerneck -20.5723 -3.80271 -2.00293
upperneck 8.85651 -4.93728 2.76613
head 6.11729 -2.22708 0.666539
rclavicle -3.17062e-014 -1.74931e-014
rhumerus -34.8104 17.792 -98.9665
rradius 103.649
rwrist -9.92812
rhand -21.9918 36.2274
rfingers 7.12502
rthumb 4.41671 6.29349
lclavicle -3.17062e-014 -1.74931e-014
lhumerus -53.7405 -12.3064 99.1242
lradius 102.101
lwrist 26.8812
lhand -27.7881 2.71354
lfingers 7.12502
lthumb -1.18129 32.69
rfemur -10.7086 3.45621 34.3577
rtibia 48.5309
rfoot -25.9162 -10.3691
rtoes -10.3979
lfemur -35.0354 8.85925 -12.9806
ltibia 92.9011
lfoot -1.28901 -3.88925
ltoes -1.94138
96
root 0.316737 17.2303 13.5896 3.43579 -5.1212 -3.96889
lowerback 15.3955 1.73922 4.0122
upperback -0.0470309 3.24218 2.47117
thorax -8.63254 1.4436 -0.342614
lowerneck -20.6812 -3.94229 -2.22603
upperneck 9.14243 -5.11433 3.07316
head 6.24596 -2.29007 0.776147
rclavicle -2.27608e-014 1.59028e-014
rhumerus -34.4923 17.9896 -98.9432
rradius 104.345
rwrist -9.70737
rhand -22.7007 36.558
rfingers 7.12502
rthumb 3.73214 6.61092
lclavicle -2.27608e-014 1.59028e-014
lhumerus -55.045 -12.3654 99.2903
lradius 102.663
lwrist 27.4895
lhand -26.7122 1.64678
lfingers 7.12502
lthumb -0.142169 31.6265
rfemur -8.58671 3.4776 34.555
rtibia 47.3718
rfoot -23.9585 -9.4057
rtoes -10.7152
lfemur -36.675 9.14407 -12.9866
ltibia 91.4762
lfoot -2.79314 -3.79405
ltoes -3.59273
97
root 0.312992 17.3207 14.0525 3.69082 -4.39893 -4.20426
lowerback 15.2727 1.71328 4.62501
upperback -0.242854 3.30944 2.3466
thorax -8.73353 1.44216 -0.833133
lowerneck -21.0675 -4.08341 -2.2047
upperneck 9.52723 -5.34645 3.29121
head 6.44441 -2.37302 0.806869
rclavicle -1.26228e-014 2.22639e-014
rhumerus -34.1361 18.1204 -99.0693
rradius 105.164
rwrist -9.62547
rhand -23.0285 36.3246
rfingers 7.12502
rthumb 3.41556 6.37226
lclavicle -1.26228e-014 2.22639e-014
lhumerus -56.3169 -12.3776 99.3132
lradius 103.302
lwrist 27.7999
lhand -26.4121 1.09048
lfingers 7.12502
lthumb 0.147702 31.0702
rfemur -6.80843 3.01004 34.6138
rtibia 46.129
rfoot -21.8049 -8.1697
rtoes -10.5669
lfemur -38.6627 8.43548 -13.2595
ltibia 89.6919
lfoot -5.39775 -3.69821
ltoes -10.9881
98
root 0.301459 17.432 14.5126 3.81585 -3.81697 -4.13961
lowerback 15.146 1.72577 4.69069
upperback -0.247122 3.32055 2.24321
thorax -8.65556 1.44445 -0.978537
lowerneck -21.3464 -4.13505 -1.9563
upperneck 9.53388 -5.45724 3.14109
head 6.48206 -2.42663 0.701733
rclavicle -7.55382e-015 1.66979e-014
rhumerus -33.5307 18.4032 -99.0113
rradius 105.95
rwrist -9.77774
rhand -23.0367 36.219
rfingers 7.12502
rthumb 3.40769 6.26649
lclavicle -7.55382e-015 1.66979e-014
lhumerus -57.1721 -12.1007 99.2047
lradius 103.797
lwrist 27.8941
lhand -26.3791 0.948814
lfingers 7.12502
lthumb 0.179635 30.9285
rfemur -4.99889 2.69008 34.3101
rtibia 44.8195
rfoot -19.4844 -6.73119
rtoes -12.3092
lfemur -40.1694 7.71797 -13.9024
ltibia 87.366
lfoot -3.79137 -4.33922
ltoes -5.24581
99
root 0.281003 17.536 14.9906 3.8194 -3.63534 -4.21301
lowerback 14.9846 1.92059 4.74135
upperback -0.29506 3.5747 2.1841
thorax -8.59748 1.5645 -1.11935
lowerneck -20.9745 -4.24961 -1.83514
upperneck 9.18232 -5.62223 3.03145
head 6.306 -2.52001 0.637613
rclavicle 1.0138e-014 9.54166e-015
rhumerus -33.209 18.4791 -98.8977
rradius 106.602
rwrist -9.68489
rhand -22.7861 36.0501
rfingers 7.12502
rthumb 3.64966 6.1016
lclavicle 1.0138e-014 9.54166e-015
lhumerus -58.2243 -11.8339 99.1396
lradius 104.153
lwrist 28.0254
lhand -26.3856 1.70517
lfingers 7.12502
lthumb 0.173282 31.6848
rfemur -2.97331 2.6723 34.1429
rtibia 43.4043
rfoot -16.4136 -5.31403
rtoes -13.0439
lfemur -40.9283 7.46035 -14.3006
ltibia 84.8773
lfoot -3.92271 -4.82111
ltoes -7.06262
100
root 0.266507 17.6381 15.5023 3.87167 -3.55541 -4.43634
lowerback 14.5166 2.12502 4.97822
upperback -0.448137 3.8616 2.15545
thorax -8.46773 1.69461 -1.32501
lowerneck -20.6225 -4.38136 -1.78905
upperneck 9.25274 -5.81593 3.00731
head 6.2756 -2.61719 0.605622
rclavicle 6.60959e-014 2.90226e-014
rhumerus -33.2184 18.5774 -98.9686
rradius 107.005
rwrist -9.43948
rhand -21.8642 34.683
rfingers 7.12502
rthumb 4.53986 4.75167
lclavicle 6.60959e-014 2.90226e-014
lhumerus -59.6329 -11.3399 99.0897
lradius 104.535
lwrist 28.2071
lhand -26.3798 3.02315
lfingers 7.12502
lthumb 0.178921 33.0028
rfemur -0.857845 2.6472 34.039
rtibia 41.7503
rfoot -12.6816 -3.82081
rtoes -11.0973
lfemur -41.6652 7.30593 -14.571
ltibia 82.0022
lfoot -4.57292 -5.48061
ltoes -8.76487
101
root 0.258507 17.7769 16.0382 3.99997 -3.42543 -4.43099
lowerback 13.7281 2.28942 5.14398
upperback -0.571397 4.05009 2.04285
thorax -8.12384 1.78658 -1.53955
lowerneck -20.2155 -4.50109 -2.00657
upperneck 9.40984 -5.9787 3.3346
head 6.28374 -2.67843 0.731701
rclavicle -4.02539e-015 -4.77083e-015
rhumerus -33.2693 18.7437 -99.0426
rradius 107.407
rwrist -9.38454
rhand -20.6719 32.7724
rfingers 7.12502
rthumb 5.69111 2.8688
lclavicle -4.02539e-015 -4.77083e-015
lhumerus -60.8617 -10.7617 98.966
lradius 104.699
lwrist 28.0574
lhand -27.2378 14.6365
lfingers 7.12502
lthumb -0.649808 44.6152
rfemur 1.29246 2.62697 33.5832
rtibia 39.7563
rfoot -8.2284 -1.59186
rtoes -7.61401
lfemur -41.9215 6.94654 -15.1221
ltibia 78.6376
lfoot -5.25016 -6.02535
ltoes -9.53009
